<svg version="1.2" xmlns="http://www.w3.org/2000/svg" viewBox="0 0 109 109" width="100" height="100">
	<style>
		.s0 { fill: #4bb6fe } 
		.s1 { fill: #83c1e6 } 
		.s2 { fill: #80bfe4 } 
	</style>
	<path class="s0" d="m58.64 88.54c-8.14-0.42-14.09-4.21-17.57-11.62-1.07-2.28-1.73-4.71-1.62-7.3 0.07-1.55-0.04-3.11 0.04-4.66 0.04-0.82-0.24-1.17-1.03-1.22-3.5-0.22-6.59-1.66-9.08-3.94-2.99-2.74-5.03-6.22-5.35-10.41-0.17-2.2-0.02-4.44-0.04-6.65-0.01-0.65-0.16-1.18-1.04-1.16-1.29 0.02-2.09-0.69-2.13-1.98-0.07-2.04-0.11-4.08 0.02-6.11 0.07-1.11 0.9-1.75 2.08-1.75 1.87 0 3.74-0.06 5.6 0.02 1.06 0.04 1.38-0.31 1.37-1.37-0.05-4.98-0.03-9.96-0.02-14.93 0-1.57 1.28-2.85 2.9-2.92 1.95-0.09 3.42 0.99 3.48 2.72 0.07 2.36-0.02 4.72 0.03 7.08 0.04 2.33 0.16 4.67 0.25 7 0.03 0.78-0.23 1.9 0.18 2.24 0.47 0.4 1.51 0.15 2.31 0.16q3.87 0.01 7.73 0c1.78 0 1.82 0 1.77-1.85-0.04-1.67-0.25-3.34-0.24-5.01 0.03-3.36 0.16-6.72 0.26-10.07 0.03-0.88 1.23-2.08 2.2-2.27 2.27-0.43 4.31 1.16 4.24 3.55-0.15 4.62-0.05 9.25-0.05 13.87 0 1.78 0 1.78 1.85 1.78q2.2-0.01 4.4 0c1.95 0.02 3.05 1.59 2.69 3.51-0.22 1.11-0.21 2.31-0.08 3.44 0.16 1.45-0.4 2.61-1.82 2.87-0.79 0.14-0.9 0.49-0.91 1.15q-0.09 3.11-0.26 6.21c-0.24 4.19-2.01 7.65-4.99 10.54-2.11 2.05-4.67 3.3-7.48 4.06-0.57 0.16-1.25 0.02-1.79 0.25-0.47 0.19-1.14 0.69-1.15 1.07-0.12 3.02-0.22 6.04 0.98 8.93 1.77 4.23 4.75 7.1 9.3 8.08 2.19 0.48 4.42 0.85 6.66 1.05 1.44 0.13 2.91-0.14 4.6-0.23 2.55-0.07 4.88-0.14 7.21-0.22 0.77-0.05 1.53-0.11 2.66-0.19-2.27-1.49-4.22-2.74-6.14-4.02-1.49-0.99-1.83-2.97-0.85-4.73 0.59-1.06 2.44-1.48 3.84-0.66 2.09 1.21 4.09 2.58 6.13 3.88 2.56 1.62 5.08 3.28 7.67 4.85 2.42 1.48 2.5 4.74 0.22 6.45-2.78 2.08-5.44 4.33-8.18 6.47q-2.48 1.92-5.07 3.7c-0.81 0.56-2.95 0.12-3.49-0.61-0.9-1.22-0.99-3.2-0.02-4.04 1.7-1.49 3.5-2.86 5.26-4.28 0.21-0.16 0.42-0.33 0.94-0.74-2.24 0-4.08 0-6.16 0-4.26 0-8.29 0.01-12.31 0.01z"/>
	<path class="s1" d="m58.7 88.64c3.96-0.1 7.99-0.11 12.14-0.11-0.05 0.1-0.23 0.26-0.41 0.26-3.89 0-7.78-0.03-11.73-0.15z"/>
	<path class="s2" d="m74.02 82.43q-3.31 0.14-6.99 0.24c0.49-0.1 1.1-0.25 1.72-0.26 1.72-0.03 3.43 0 5.27 0.02z"/>
</svg>